# xmcd CD database file
#
# Track frame offsets:
#	150
#	14187
#	26727
#	39820
#	46762
#	62397
#	77127
#	90602
#	102520
#	115622
#	128297
#	141030
#	152970
#	178935
#	190157
#	201607
#	217475
#	230460
#	242220
#
# Disc length: 3437 seconds
#
# Revision: 0
# Processed by: cddbd v1.4PL0 Copyright (c) Steve Scherf et al.
# Submitted via: CDex 1.50
#
DISCID=0c0d6b13
DTITLE=Paberky Marko Cermaka - Trail do Kalifornie
DYEAR=1997
DGENRE=Country
TTITLE0=Kalifornie
TTITLE1=Sladka Betsy z Pike
TTITLE2=Dva tulaci
TTITLE3=Texaska stezka
TTITLE4=Bezte telatka maly
TTITLE5=Zivot mi uz nema co vzit
TTITLE6=V udoli dole
TTITLE7=Slap slap jen si slapej dale
TTITLE8=At nepohrbivas
TTITLE9=Pulnocni rychlik
TTITLE10=Zen je dal
TTITLE11=Tak se toulam
TTITLE12=Cesta do Mexika
TTITLE13=Joe Bowers
TTITLE14=Laska lehkomyslna
TTITLE15=Loucim se s prasnou svou zemi
TTITLE16=Co si tu pocit
TTITLE17=Vitr
TTITLE18=Jsem u naveny
EXTD=YEAR: 1997
EXTT0=
EXTT1=
EXTT2=
EXTT3=
EXTT4=
EXTT5=
EXTT6=
EXTT7=
EXTT8=
EXTT9=
EXTT10=
EXTT11=
EXTT12=
EXTT13=
EXTT14=
EXTT15=
EXTT16=
EXTT17=
EXTT18=
PLAYORDER=
